<?xml version="1.0" encoding="UTF-8" standalone="no"?>
<!-- Generator: Adobe Illustrator 17.0.0, SVG Export Plug-In . SVG Version: 6.00 Build 0)  -->

<svg
   xmlns:dc="http://purl.org/dc/elements/1.1/"
   xmlns:cc="http://creativecommons.org/ns#"
   xmlns:rdf="http://www.w3.org/1999/02/22-rdf-syntax-ns#"
   xmlns:svg="http://www.w3.org/2000/svg"
   xmlns="http://www.w3.org/2000/svg"
   xmlns:sodipodi="http://sodipodi.sourceforge.net/DTD/sodipodi-0.dtd"
   xmlns:inkscape="http://www.inkscape.org/namespaces/inkscape"
   version="1.1"
   id="Layer_1"
   x="0px"
   y="0px"
   width="210.79153"
   height="45.47554"
   viewBox="0 0 210.79153 45.475539"
   enable-background="new 0 0 226.772 85.039"
   xml:space="preserve"
   inkscape:version="0.48.2 r9819"
   sodipodi:docname="logo.svg"><metadata
   id="metadata59"><rdf:RDF><cc:Work
       rdf:about=""><dc:format>image/svg+xml</dc:format><dc:type
         rdf:resource="http://purl.org/dc/dcmitype/StillImage" /><dc:title></dc:title></cc:Work></rdf:RDF></metadata><defs
   id="defs57" /><sodipodi:namedview
   pagecolor="#ffffff"
   bordercolor="#666666"
   borderopacity="1"
   objecttolerance="10"
   gridtolerance="10"
   guidetolerance="10"
   inkscape:pageopacity="0"
   inkscape:pageshadow="2"
   inkscape:window-width="1617"
   inkscape:window-height="1030"
   id="namedview55"
   showgrid="false"
   fit-margin-top="2"
   fit-margin-left="0"
   fit-margin-right="0"
   fit-margin-bottom="2"
   inkscape:zoom="1.4199284"
   inkscape:cx="105.54553"
   inkscape:cy="21.184652"
   inkscape:window-x="556"
   inkscape:window-y="175"
   inkscape:window-maximized="0"
   inkscape:current-layer="Layer_1" />
<g
   id="g3"
   transform="translate(-7.8404719,-18.228612)">
	<path
   d="m 63.406,47.919 c -1.009,0.283 -2.054,0.331 -2.65,0.331 -4.391,0 -6.776,-2.733 -6.776,-6.079 0,-3.364 2.435,-6.214 6.727,-6.214 1.707,0 2.849,0.415 3.248,0.563 v 2.005 c -0.464,-0.315 -1.492,-0.96 -3.065,-0.96 -2.766,0 -4.589,1.905 -4.589,4.473 0,2.6 1.789,4.604 4.92,4.604 1.506,0 2.849,-0.464 3.28,-0.612 l -1.095,1.889 z"
   id="path5"
   inkscape:connector-curvature="0"
   style="fill:#6f7071" />
	<path
   d="m 71.455,45.815 c 0,1.657 0.033,1.771 0.131,2.137 H 69.7 C 69.599,47.62 69.567,47.207 69.567,46.743 l -0.928,1.275 c -0.296,0.084 -0.531,0.133 -0.994,0.133 -0.977,0 -1.64,-0.265 -2.086,-0.647 -0.264,-0.23 -0.796,-0.778 -0.796,-1.821 0,-1.225 0.745,-2.005 1.607,-2.37 0.629,-0.281 1.408,-0.396 2.153,-0.396 0.397,0 0.612,0.016 1.044,0.066 0,-1.243 -0.248,-2.021 -1.724,-2.021 -0.91,0 -1.721,0.297 -2.435,0.579 l 1.01,-1.722 c 0.464,-0.101 1.242,-0.266 2.004,-0.266 0.598,0 1.626,0.051 2.338,0.763 0.679,0.679 0.679,1.507 0.695,2.203 v 3.296 z m -1.889,-1.558 c -0.182,-0.017 -0.364,-0.031 -0.53,-0.031 -0.763,0 -1.11,0.066 -1.309,0.133 -0.696,0.216 -0.995,0.729 -0.995,1.258 0,0.579 0.348,1.177 1.375,1.177 0.597,0 1.16,-0.249 1.459,-0.382 v -2.155 z"
   id="path7"
   inkscape:connector-curvature="0"
   style="fill:#6f7071" />
	<path
   d="m 73.208,39.752 h 1.954 v 1.457 l 0.944,-1.325 c 0.564,-0.2 1.078,-0.315 1.673,-0.315 1.144,0 2.287,0.48 2.618,1.739 l 1.026,-1.441 c 0.25,-0.099 0.829,-0.297 1.675,-0.297 0.397,0 1.522,0.034 2.202,0.861 0.53,0.646 0.547,1.375 0.547,2.237 v 5.284 h -1.954 v -4.854 c 0,-1.159 -0.266,-2.021 -1.574,-2.021 -0.812,0 -1.525,0.431 -1.857,0.629 0.017,0.199 0.033,0.397 0.033,1.061 v 5.186 H 78.56 v -4.838 c -0.017,-1.126 -0.249,-2.037 -1.607,-2.037 -0.728,0 -1.375,0.33 -1.79,0.545 v 6.33 h -1.954 v -8.201 z"
   id="path9"
   inkscape:connector-curvature="0"
   style="fill:#6f7071" />
	<path
   d="m 89.571,41.093 0.946,-1.375 c 0.283,-0.05 0.845,-0.148 1.359,-0.148 2.369,0 3.711,1.772 3.711,4.076 0,2.203 -1.343,4.506 -4.49,4.506 -1.226,0 -2.618,-0.431 -3.479,-0.878 V 36.256 h 1.953 v 4.837 z m 0,5.135 c 0.283,0.183 0.747,0.465 1.591,0.465 1.84,0 2.387,-1.591 2.387,-2.868 0,-1.124 -0.449,-2.765 -2.371,-2.765 -0.827,0 -1.358,0.248 -1.607,0.364 v 4.804 z"
   id="path11"
   inkscape:connector-curvature="0"
   style="fill:#6f7071" />
	<path
   d="m 98.831,47.952 h -1.988 v -8.184 h 1.988 v 1.426 l 0.945,-1.327 c 0.332,-0.132 0.828,-0.264 1.524,-0.264 0.364,0 0.547,0.049 0.778,0.114 v 1.89 c -0.431,-0.215 -0.912,-0.464 -1.589,-0.464 -0.382,0 -1.011,0.083 -1.658,0.498 v 6.311 z"
   id="path13"
   inkscape:connector-curvature="0"
   style="fill:#6f7071" />
	<path
   d="m 104.627,37.018 c 0,0.597 -0.48,0.995 -1.043,0.995 -0.547,0 -1.028,-0.415 -1.028,-0.995 0,-0.58 0.481,-0.994 1.028,-0.994 0.547,0 1.043,0.38 1.043,0.994 z m -0.065,10.934 h -1.938 v -8.2 h 1.938 v 8.2 z"
   id="path15"
   inkscape:connector-curvature="0"
   style="fill:#6f7071" />
	<path
   d="m 113.789,47.952 h -1.955 v -1.359 l -0.943,1.359 c -0.283,0.083 -0.682,0.199 -1.244,0.199 -2.717,0 -3.827,-2.038 -3.827,-4.158 0,-2.353 1.476,-4.423 3.942,-4.423 0.762,0 1.424,0.165 2.072,0.546 v -3.859 h 1.955 v 11.695 z m -1.956,-6.411 c -0.648,-0.414 -1.242,-0.48 -1.607,-0.48 -0.297,0 -0.844,0.05 -1.375,0.463 -0.729,0.579 -0.977,1.542 -0.977,2.487 0,0.362 0.032,0.729 0.148,1.076 0.265,0.894 0.978,1.606 2.186,1.606 0.564,0 1.111,-0.149 1.625,-0.397 v -4.755 z"
   id="path17"
   inkscape:connector-curvature="0"
   style="fill:#6f7071" />
	<path
   d="m 120.146,47.487 c -0.312,0.066 -0.711,0.15 -1.242,0.15 -2.352,0 -3.859,-1.54 -3.859,-3.793 0,-2.17 1.408,-4.292 4.623,-4.292 0.562,0 1.971,0.066 3.363,0.713 v 6.543 c 0.016,0.896 -0.018,1.64 -0.531,2.536 -0.746,1.241 -2.086,1.972 -3.877,1.972 -0.447,0 -0.977,-0.05 -1.605,-0.168 -0.879,-0.18 -1.229,-0.363 -1.557,-0.529 v -1.823 c 1.109,0.879 2.416,1.028 3.014,1.028 0.613,0 1.475,-0.133 2.021,-0.779 0.596,-0.68 0.596,-1.508 0.596,-2.914 l -0.946,1.356 z m 0.945,-6.195 c -0.264,-0.098 -0.81,-0.282 -1.459,-0.282 -1.475,0 -2.518,1.011 -2.518,2.651 0,1.607 0.93,2.534 2.305,2.534 0.777,0 1.424,-0.298 1.672,-0.414 v -4.489 z"
   id="path19"
   inkscape:connector-curvature="0"
   style="fill:#6f7071" />
	<path
   d="m 130.683,47.887 c -0.648,0.181 -1.311,0.265 -1.971,0.265 -2.951,0 -4.441,-1.79 -4.441,-4.259 0,-2.534 1.557,-4.34 3.941,-4.34 0.58,0 1.16,0.1 1.689,0.348 1.973,0.912 1.988,3.082 2.006,4.075 h -5.551 c 0.051,0.53 0.115,1.409 0.797,2.055 0.562,0.53 1.357,0.713 2.135,0.713 1.109,0 2.006,-0.364 2.338,-0.497 l -0.943,1.64 z m -0.764,-5.137 c -0.018,-0.298 -0.051,-0.911 -0.48,-1.375 -0.299,-0.314 -0.713,-0.496 -1.193,-0.496 -1.01,0 -1.656,0.795 -1.855,1.872 h 3.528 z"
   id="path21"
   inkscape:connector-curvature="0"
   style="fill:#6f7071" />
	<path
   d="m 147.576,47.952 h -2.168 v -5.334 h -5.453 v 5.334 h -2.17 V 36.256 h 2.17 v 4.671 h 5.453 v -4.671 h 2.168 v 11.696 z"
   id="path23"
   inkscape:connector-curvature="0"
   style="fill:#6f7071" />
	<path
   d="m 155.275,47.887 c -0.643,0.181 -1.307,0.265 -1.969,0.265 -2.949,0 -4.441,-1.79 -4.441,-4.259 0,-2.534 1.557,-4.34 3.943,-4.34 0.578,0 1.16,0.1 1.689,0.348 1.971,0.912 1.988,3.082 2.004,4.075 h -5.551 c 0.051,0.53 0.117,1.409 0.797,2.055 0.562,0.53 1.357,0.713 2.137,0.713 1.109,0 2.006,-0.364 2.336,-0.497 l -0.945,1.64 z m -0.76,-5.137 c -0.018,-0.298 -0.051,-0.911 -0.48,-1.375 -0.301,-0.314 -0.715,-0.496 -1.193,-0.496 -1.01,0 -1.656,0.795 -1.855,1.872 h 3.528 z"
   id="path25"
   inkscape:connector-curvature="0"
   style="fill:#6f7071" />
	<path
   d="m 163.673,45.815 c 0,1.657 0.031,1.771 0.133,2.137 h -1.889 c -0.1,-0.332 -0.133,-0.745 -0.133,-1.209 l -0.928,1.275 c -0.299,0.084 -0.529,0.133 -0.994,0.133 -0.977,0 -1.639,-0.265 -2.086,-0.647 -0.266,-0.23 -0.797,-0.778 -0.797,-1.821 0,-1.225 0.746,-2.005 1.607,-2.37 0.631,-0.281 1.408,-0.396 2.152,-0.396 0.4,0 0.613,0.016 1.045,0.066 0,-1.243 -0.248,-2.021 -1.723,-2.021 -0.912,0 -1.721,0.297 -2.436,0.579 l 1.012,-1.722 c 0.463,-0.101 1.242,-0.266 2.004,-0.266 0.598,0 1.623,0.051 2.336,0.763 0.68,0.679 0.68,1.507 0.695,2.203 v 3.296 z m -1.888,-1.558 c -0.182,-0.017 -0.365,-0.031 -0.529,-0.031 -0.764,0 -1.111,0.066 -1.311,0.133 -0.695,0.216 -0.992,0.729 -0.992,1.258 0,0.579 0.348,1.177 1.375,1.177 0.596,0 1.158,-0.249 1.457,-0.382 v -2.155 z"
   id="path27"
   inkscape:connector-curvature="0"
   style="fill:#6f7071" />
	<path
   d="m 167.367,47.952 h -1.939 V 36.256 h 1.939 v 11.696 z"
   id="path29"
   inkscape:connector-curvature="0"
   style="fill:#6f7071" />
	<path
   d="m 172.501,48.035 c -0.234,0.05 -0.531,0.116 -0.98,0.116 -0.463,0 -1.125,-0.066 -1.639,-0.63 -0.498,-0.563 -0.498,-1.143 -0.48,-1.872 l 0.033,-4.49 h -1.059 l 0.875,-1.408 h 0.217 V 38.21 l 1.922,-0.596 v 2.138 h 1.84 v 1.408 h -1.873 l -0.031,3.58 c 0,0.894 0,1.241 0.195,1.539 0.15,0.218 0.465,0.447 1.014,0.447 0.361,0 0.744,-0.099 1.092,-0.216 l -1.126,1.525 z"
   id="path31"
   inkscape:connector-curvature="0"
   style="fill:#6f7071" />
	<path
   d="M 181.708,47.952 H 179.77 V 43.81 c -0.018,-1.292 -0.018,-1.938 -0.562,-2.402 -0.217,-0.182 -0.58,-0.347 -1.129,-0.347 -0.527,0 -1.223,0.183 -1.869,0.613 v 6.279 h -1.975 V 36.256 h 1.975 v 5.052 l 0.992,-1.49 c 0.562,-0.166 1.062,-0.249 1.658,-0.249 0.496,0 1.373,0.066 2.053,0.678 0.764,0.697 0.779,1.542 0.795,2.255 v 5.45 z"
   id="path33"
   inkscape:connector-curvature="0"
   style="fill:#6f7071" />
	<path
   d="m 188.996,47.887 c -0.314,0.098 -0.893,0.265 -1.721,0.265 -2.353,0 -4.326,-1.559 -4.326,-4.241 0,-2.221 1.508,-4.358 4.457,-4.358 0.447,0 1.275,0.051 2.203,0.431 v 1.74 c -0.264,-0.215 -0.943,-0.713 -1.986,-0.713 -1.592,0 -2.588,1.226 -2.588,2.851 0,1.589 1.012,2.898 2.871,2.898 0.676,0 1.24,-0.182 2.018,-0.431 l -0.928,1.558 z"
   id="path35"
   inkscape:connector-curvature="0"
   style="fill:#6f7071" />
	<path
   d="m 197.062,45.815 c 0,1.657 0.033,1.771 0.133,2.137 h -1.889 c -0.1,-0.332 -0.133,-0.745 -0.133,-1.209 l -0.928,1.275 c -0.299,0.084 -0.529,0.133 -0.992,0.133 -0.979,0 -1.641,-0.265 -2.088,-0.647 -0.266,-0.23 -0.795,-0.778 -0.795,-1.821 0,-1.225 0.746,-2.005 1.605,-2.37 0.629,-0.281 1.408,-0.396 2.154,-0.396 0.396,0 0.613,0.016 1.043,0.066 0,-1.243 -0.246,-2.021 -1.723,-2.021 -0.91,0 -1.723,0.297 -2.436,0.579 l 1.012,-1.722 c 0.463,-0.101 1.242,-0.266 2.002,-0.266 0.6,0 1.625,0.051 2.338,0.763 0.68,0.679 0.68,1.507 0.695,2.203 v 3.296 z m -1.889,-1.558 c -0.182,-0.017 -0.363,-0.031 -0.529,-0.031 -0.762,0 -1.111,0.066 -1.309,0.133 -0.695,0.216 -0.992,0.729 -0.992,1.258 0,0.579 0.346,1.177 1.373,1.177 0.596,0 1.158,-0.249 1.457,-0.382 v -2.155 z"
   id="path37"
   inkscape:connector-curvature="0"
   style="fill:#6f7071" />
	<path
   d="m 200.804,47.952 h -1.988 v -8.184 h 1.988 v 1.426 l 0.945,-1.327 c 0.33,-0.132 0.828,-0.264 1.521,-0.264 0.367,0 0.549,0.049 0.781,0.114 v 1.89 c -0.432,-0.215 -0.912,-0.464 -1.592,-0.464 -0.381,0 -1.01,0.083 -1.656,0.498 v 6.311 z"
   id="path39"
   inkscape:connector-curvature="0"
   style="fill:#6f7071" />
	<path
   d="m 210.494,47.887 c -0.646,0.181 -1.307,0.265 -1.969,0.265 -2.951,0 -4.441,-1.79 -4.441,-4.259 0,-2.534 1.557,-4.34 3.943,-4.34 0.58,0 1.16,0.1 1.688,0.348 1.971,0.912 1.99,3.082 2.006,4.075 h -5.551 c 0.049,0.53 0.117,1.409 0.797,2.055 0.561,0.53 1.359,0.713 2.137,0.713 1.107,0 2.006,-0.364 2.336,-0.497 l -0.946,1.64 z m -0.762,-5.137 c -0.018,-0.298 -0.051,-0.911 -0.479,-1.375 -0.301,-0.314 -0.715,-0.496 -1.195,-0.496 -1.008,0 -1.654,0.795 -1.854,1.872 h 3.528 z"
   id="path41"
   inkscape:connector-curvature="0"
   style="fill:#6f7071" />
</g>
<g
   id="g43"
   transform="translate(-7.8404719,-18.228612)">
	<path
   d="m 47.59,32.905 c -1.799,-3.159 -3,-4.719 -5.37,-6.533 -0.534,-0.408 -1.544,-1.069 -2.116,-1.035 -0.574,0.033 0.096,0.767 0.625,1.215 1.284,1.242 1.637,1.997 2.714,3.317 -0.245,-0.083 -0.71,-0.285 -0.962,-0.352 -1.491,-2.003 -3.146,-4.021 -4.871,-4.85 -0.661,-0.472 -1.821,-0.7 -2.439,-0.688 -0.611,0.012 -0.672,0.144 -0.184,0.63 1.149,0.958 2.918,2.784 4.512,4.68 -0.211,0.009 -0.588,0.03 -0.8,0.053 -1.885,-2.264 -3.588,-4.055 -4.951,-4.932 -0.641,-0.504 -1.418,-0.859 -2.347,-0.78 -1.506,0.129 -0.649,0.928 -0.281,1.205 1.087,0.894 3.023,3.006 4.906,5.238 -0.189,0.083 -0.373,0.175 -0.553,0.27 -2.09,-2.762 -4.547,-5.127 -5.898,-6.013 -0.339,-0.213 -1.189,-0.465 -1.981,-0.305 -1.236,0.25 -1.546,0.75 -1.259,1.041 1.422,1.391 4.681,4.181 7.231,7.917 0.549,0.853 1.5,2.393 1.915,3.016 0.517,0.773 1.711,2.623 1.386,3.066 -0.647,0.894 -1.179,0.295 -1.867,-0.331 -1.014,-0.918 -2.642,-2.106 -3.899,-1.948 -1.283,0.163 -2.655,0.737 -2.59,2.155 -10e-4,0.008 1.935,-0.386 4.504,1.929 2.167,1.951 3.083,3.767 5.521,4.892 0.357,0.164 0.803,0.344 1.26,0.473 -0.019,0.305 -0.041,0.621 -0.068,0.947 1.19,-0.305 2.255,-0.625 3.133,-0.891 0.445,-0.135 0.835,-0.252 1.164,-0.344 l 0.021,-0.006 c 0.303,-0.078 0.619,-0.074 0.912,0.02 0.419,0.129 0.768,0.43 0.977,0.838 0.313,0.613 0.299,1.436 -0.038,2.443 -0.275,0.814 -0.827,1.504 -1.361,1.945 0.192,0.723 -0.139,1.435 -0.257,1.685 -0.399,0.85 -1.038,1.521 -1.905,1.998 0.041,0.516 -0.203,0.957 -0.321,1.17 -0.354,0.641 -1.25,1.75 -2.313,2.277 -0.345,0.227 -0.722,0.426 -1.125,0.605 -0.008,0.197 -0.059,0.422 -0.179,0.666 -0.23,0.457 -0.671,0.854 -1.176,1.184 4.56,-1.939 8.182,-5.385 10.4,-9.596 0.409,-2.643 0.541,-5.576 0.417,-8.21 1.772,-3.012 1.188,-6.903 -0.487,-10.061 z"
   id="path45"
   inkscape:connector-curvature="0"
   style="fill:#0091c9" />
	<path
   d="m 10.27,38.56 c 0.433,-1.734 0.912,-2.416 1.516,-4.008 0.051,0.254 0.107,0.756 0.176,1.009 -0.988,2.293 -1.91,4.735 -1.764,6.644 -0.08,0.81 0.304,1.929 0.623,2.456 0.316,0.523 0.462,0.51 0.638,-0.154 0.257,-1.475 0.954,-3.919 1.799,-6.249 0.114,0.179 0.321,0.494 0.446,0.666 -1.019,2.765 -1.719,5.136 -1.795,6.755 -0.117,0.805 -0.036,1.656 0.497,2.42 0.864,1.238 1.128,0.1 1.184,-0.359 0.23,-1.387 1.092,-4.12 2.084,-6.867 0.165,0.122 0.335,0.236 0.508,0.346 -1.347,3.19 -2.165,6.499 -2.258,8.112 -0.015,0.4 0.19,1.26 0.726,1.867 0.834,0.947 1.422,0.963 1.53,0.57 0.494,-1.928 1.28,-6.145 3.242,-10.221 0.464,-0.901 1.322,-2.495 1.653,-3.166 0.411,-0.837 1.418,-2.794 1.965,-2.735 1.096,0.116 0.844,0.875 0.647,1.782 -0.291,1.337 -0.505,3.343 0.261,4.35 0.783,1.032 1.963,1.932 3.163,1.166 0.006,-0.004 -1.303,-1.481 -0.583,-4.865 0.607,-2.853 1.722,-4.552 1.476,-7.226 -0.037,-0.392 -0.103,-0.868 -0.22,-1.328 0.273,-0.138 0.559,-0.276 0.855,-0.415 -0.859,-0.879 -1.668,-1.64 -2.336,-2.268 -0.339,-0.318 -0.636,-0.597 -0.881,-0.836 L 25.407,25.99 c -0.221,-0.224 -0.373,-0.499 -0.44,-0.797 -0.096,-0.43 -0.012,-0.881 0.238,-1.266 0.375,-0.578 1.094,-0.978 2.135,-1.188 0.843,-0.171 1.716,-0.037 2.365,0.206 0.529,-0.529 1.312,-0.596 1.587,-0.621 0.936,-0.081 1.836,0.139 2.684,0.649 0.427,-0.291 0.928,-0.302 1.172,-0.306 0.731,-0.013 2.14,0.208 3.129,0.866 0.37,0.186 0.733,0.411 1.087,0.67 0.175,-0.09 0.395,-0.16 0.666,-0.176 0.51,-0.03 1.074,0.153 1.614,0.424 -3.961,-2.979 -8.754,-4.393 -13.51,-4.206 -2.493,0.964 -5.1,2.316 -7.319,3.742 -3.497,-0.026 -6.575,2.426 -8.471,5.455 -1.838,3.138 -2.589,4.957 -2.973,7.918 -0.088,0.666 -0.154,1.872 0.161,2.351 0.313,0.479 0.616,-0.469 0.738,-1.151 z"
   id="path47"
   inkscape:connector-curvature="0"
   style="fill:#0091c9" />
	<path
   d="m 35.898,58.934 c -1.717,0.494 -2.549,0.422 -4.23,0.691 0.196,-0.168 0.603,-0.471 0.787,-0.656 2.479,-0.289 5.056,-0.713 6.634,-1.793 0.741,-0.336 1.518,-1.229 1.815,-1.768 0.298,-0.535 0.212,-0.654 -0.452,-0.476 -1.405,0.518 -3.869,1.137 -6.31,1.568 0.098,-0.185 0.267,-0.525 0.355,-0.719 2.901,-0.502 5.304,-1.08 6.746,-1.822 0.758,-0.301 1.454,-0.797 1.849,-1.641 0.642,-1.371 -0.478,-1.027 -0.903,-0.846 -1.316,0.494 -4.114,1.113 -6.989,1.629 0.022,-0.205 0.037,-0.41 0.044,-0.613 3.437,-0.43 6.713,-1.373 8.156,-2.101 0.353,-0.188 0.997,-0.797 1.253,-1.562 0.403,-1.193 0.124,-1.713 -0.271,-1.609 -1.916,0.535 -5.961,1.963 -10.472,2.301 -1.011,0.053 -2.822,0.104 -3.567,0.152 -0.93,0.062 -3.128,0.17 -3.351,-0.334 -0.448,-1.008 0.334,-1.168 1.22,-1.451 1.304,-0.416 3.146,-1.234 3.636,-2.4 0.502,-1.193 0.691,-2.667 -0.571,-3.321 -0.006,-0.004 -0.632,1.87 -3.923,2.936 -2.773,0.898 -4.803,0.785 -6.995,2.334 -0.321,0.229 -0.7,0.525 -1.042,0.854 -0.254,-0.166 -0.517,-0.344 -0.785,-0.533 -0.331,1.185 -0.586,2.266 -0.796,3.16 -0.105,0.451 -0.199,0.85 -0.285,1.18 l -0.005,0.021 c -0.083,0.307 -0.247,0.574 -0.471,0.779 -0.324,0.299 -0.755,0.449 -1.215,0.428 -0.688,-0.037 -1.394,-0.459 -2.096,-1.256 -0.57,-0.645 -0.892,-1.467 -1.005,-2.149 -0.723,-0.195 -1.173,-0.842 -1.331,-1.068 -0.539,-0.77 -0.799,-1.656 -0.781,-2.648 C 10.081,45.978 9.822,45.549 9.696,45.34 9.32,44.713 8.807,43.382 8.882,42.198 8.857,41.787 8.873,41.36 8.92,40.923 8.753,40.815 8.582,40.66 8.434,40.434 8.153,40.007 8.029,39.425 7.994,38.822 c -0.598,4.92 0.574,9.779 3.113,13.807 2.083,1.674 4.557,3.256 6.901,4.465 1.725,3.041 5.388,4.483 8.96,4.609 3.636,0.021 5.586,-0.238 8.343,-1.383 0.621,-0.258 1.699,-0.807 1.956,-1.316 0.254,-0.518 -0.717,-0.301 -1.369,-0.07 z"
   id="path49"
   inkscape:connector-curvature="0"
   style="fill:#0091c9" />
</g>
<g
   id="g51"
   transform="translate(-7.8404719,-18.228612)">
	<path
   d="m 218.632,35.401 c 0,1.314 -1.03,2.345 -2.373,2.345 -1.327,0 -2.387,-1.031 -2.387,-2.345 0,-1.285 1.06,-2.316 2.387,-2.316 1.343,-10e-4 2.373,1.031 2.373,2.316 z m -4.167,0 c 0,1.032 0.763,1.851 1.809,1.851 1.017,0 1.765,-0.819 1.765,-1.836 0,-1.031 -0.748,-1.865 -1.78,-1.865 -1.031,0 -1.794,0.833 -1.794,1.85 z m 1.427,1.215 h -0.537 v -2.317 c 0.212,-0.042 0.508,-0.07 0.89,-0.07 0.439,0 0.635,0.07 0.805,0.17 0.126,0.099 0.225,0.282 0.225,0.508 0,0.254 -0.198,0.452 -0.48,0.537 v 0.028 c 0.226,0.084 0.354,0.254 0.423,0.565 0.071,0.353 0.112,0.494 0.17,0.579 h -0.58 c -0.07,-0.085 -0.113,-0.297 -0.184,-0.565 -0.041,-0.255 -0.183,-0.368 -0.48,-0.368 h -0.254 v 0.933 z m 0.014,-1.314 h 0.254 c 0.297,0 0.536,-0.099 0.536,-0.339 0,-0.212 -0.155,-0.353 -0.494,-0.353 -0.142,0 -0.241,0.014 -0.297,0.028 v 0.664 z"
   id="path53"
   inkscape:connector-curvature="0"
   style="fill:#b2b2b2" />
</g>
</svg>